<?xml version="1.0" encoding="UTF-8"?><svg id="Layer_1" xmlns="http://www.w3.org/2000/svg" viewBox="0 0 300 300"><defs><style>.cls-1{font-family:Poppins-SemiBold, Poppins;font-size:24px;font-weight:600;}.cls-2{fill:#fff;}</style></defs><path class="cls-2" d="m260.36,120.61l-9.7,6.81c1.64-4.45,2.11-9.3,1.41-14.56-.7-5.25-2.83-10.42-6.39-15.49-4.08-5.81-9.21-10.06-15.38-12.76-6.17-2.69-12.88-3.54-20.12-2.55-7.25.99-14.3,3.91-21.18,8.74-6.96,4.89-12.15,10.58-15.58,17.09-3.44,6.51-4.96,13.17-4.57,19.98.39,6.81,2.59,13.09,6.62,18.82,3.5,4.99,7.69,8.68,12.55,11.08,4.86,2.39,9.66,3.57,14.4,3.54l-10.56,7.41c-6.05,4.25-11.67,5.87-16.84,4.86-5.17-1.01-9.51-4.01-13.02-9-1.38-1.96-4.76-6.43-4.87-12.8-.07-4.28,1.33-7.56,1.97-9.04,2.05-4.67,4.19-5.4,6.31-9.3,2.26-4.17,2.43-8.05,2.49-11.99.16-9.34-3.15-18.84-9.93-28.49-5.06-7.2-10.82-12.32-17.29-15.35-6.47-3.03-13.07-4.08-19.8-3.14-6.73.94-13.25,3.62-19.55,8.05l-68.49,48.11,12.16,17.31,9.7-6.81c-1.64,4.45-2.11,9.3-1.41,14.56.7,5.25,2.83,10.42,6.39,15.49,4.08,5.81,9.21,10.06,15.38,12.76,6.17,2.69,12.88,3.54,20.12,2.55,7.25-.99,14.3-3.91,21.18-8.74,6.96-4.89,12.15-10.58,15.58-17.09,3.44-6.51,4.96-13.17,4.57-19.98-.39-6.81-2.59-13.09-6.62-18.82-3.5-4.99-7.69-8.68-12.55-11.08-4.86-2.39-9.66-3.57-14.4-3.54l10.56-7.41c6.05-4.25,11.67-5.87,16.84-4.86,5.17,1.01,9.51,4.01,13.02,9,1.38,1.96,4.76,6.42,4.87,12.8.07,4.28-1.33,7.56-1.97,9.04-2.05,4.67-4.19,5.4-6.3,9.3-2.26,4.17-2.43,8.06-2.49,12-.16,9.34,3.15,18.84,9.93,28.49,5.06,7.2,10.82,12.32,17.29,15.35,6.47,3.03,13.07,4.08,19.8,3.14,6.73-.94,13.25-3.62,19.55-8.05l68.49-48.11-12.16-17.31Zm-168.89-1.65c4.14-.46,7.98.14,11.53,1.8,3.55,1.66,6.45,4.09,8.69,7.28s3.42,6.61,3.71,10.5c.29,3.89-.51,7.75-2.4,11.59-1.89,3.83-4.88,7.19-8.97,10.06-4.09,2.87-8.22,4.52-12.38,4.94-4.16.42-7.97-.17-11.43-1.78-3.45-1.61-6.3-4.01-8.54-7.2s-3.54-6.74-3.9-10.64c-.36-3.9.38-7.72,2.22-11.46,1.84-3.74,4.84-7.07,9.02-10s8.33-4.63,12.46-5.09Zm122.42,30.63c-4.14.46-7.98-.14-11.53-1.8-3.55-1.66-6.45-4.09-8.69-7.28-2.19-3.11-3.42-6.61-3.71-10.5-.29-3.89.51-7.75,2.4-11.59,1.89-3.83,4.88-7.19,8.97-10.06s8.22-4.52,12.38-4.94c4.16-.42,7.97.17,11.43,1.78,3.45,1.61,6.3,4.01,8.54,7.2s3.54,6.74,3.9,10.64c.36,3.9-.38,7.72-2.22,11.46-1.84,3.74-4.84,7.07-9.02,10s-8.33,4.63-12.46,5.09Z"/><g><path class="cls-2" d="m56.48,208.02c.75.39,1.34.9,1.78,1.52v-1.9h3.38v13.39c0,1.23-.25,2.33-.74,3.3-.5.97-1.24,1.74-2.23,2.3-.99.57-2.19.85-3.6.85-1.89,0-3.44-.44-4.64-1.32s-1.89-2.08-2.05-3.6h3.34c.18.61.56,1.09,1.14,1.45.58.36,1.29.54,2.12.54.98,0,1.77-.29,2.38-.88.61-.58.91-1.47.91-2.65v-2.06c-.43.62-1.03,1.14-1.79,1.56s-1.63.62-2.6.62c-1.12,0-2.14-.29-3.07-.86s-1.66-1.39-2.2-2.44-.8-2.25-.8-3.61.27-2.54.8-3.58,1.26-1.84,2.18-2.4c.92-.56,1.95-.84,3.08-.84.99,0,1.86.2,2.62.59Zm1.3,4.18c-.32-.58-.75-1.03-1.3-1.34-.54-.31-1.13-.47-1.75-.47s-1.2.15-1.73.46c-.53.3-.96.75-1.28,1.33s-.49,1.28-.49,2.08.16,1.5.49,2.1c.33.6.76,1.06,1.3,1.38s1.11.48,1.72.48,1.21-.16,1.75-.47c.54-.31.98-.76,1.3-1.34.32-.58.48-1.28.48-2.1s-.16-1.52-.48-2.1Z"/><path class="cls-2" d="m65.16,205.5c-.39-.38-.59-.84-.59-1.4s.2-1.03.59-1.4.88-.56,1.48-.56,1.08.19,1.48.56c.39.38.59.84.59,1.4s-.2,1.03-.59,1.4c-.39.38-.88.56-1.48.56s-1.08-.19-1.48-.56Zm3.13,2.15v13.3h-3.36v-13.3h3.36Z"/><path class="cls-2" d="m74.05,220.31c-1.02-.57-1.83-1.37-2.41-2.41-.58-1.04-.88-2.24-.88-3.6s.3-2.56.9-3.6c.6-1.04,1.42-1.84,2.46-2.41,1.04-.57,2.2-.85,3.48-.85s2.44.29,3.48.85c1.04.57,1.86,1.37,2.46,2.41.6,1.04.9,2.24.9,3.6s-.31,2.56-.92,3.6c-.62,1.04-1.45,1.84-2.5,2.41-1.05.57-2.22.85-3.52.85s-2.43-.28-3.46-.85Zm5.17-2.52c.54-.3.96-.74,1.28-1.33.32-.59.48-1.31.48-2.16,0-1.26-.33-2.24-1-2.92-.66-.68-1.48-1.02-2.44-1.02s-1.76.34-2.41,1.02c-.65.68-.97,1.65-.97,2.92s.32,2.24.95,2.92c.63.68,1.43,1.02,2.39,1.02.61,0,1.18-.15,1.72-.44Z"/><path class="cls-2" d="m92.46,217.85l3.36-10.2h3.58l-4.92,13.3h-4.08l-4.9-13.3h3.6l3.36,10.2Z"/><path class="cls-2" d="m101.23,210.67c.54-1.04,1.26-1.84,2.18-2.4.92-.56,1.95-.84,3.08-.84.99,0,1.86.2,2.6.6.74.4,1.34.9,1.79,1.51v-1.9h3.38v13.3h-3.38v-1.94c-.43.62-1.03,1.14-1.79,1.55s-1.64.61-2.63.61c-1.12,0-2.14-.29-3.06-.86-.92-.58-1.65-1.39-2.18-2.44s-.8-2.25-.8-3.61.27-2.54.8-3.58Zm9.18,1.52c-.32-.58-.75-1.03-1.3-1.34-.54-.31-1.13-.47-1.75-.47s-1.2.15-1.73.46c-.53.3-.96.75-1.28,1.33s-.49,1.28-.49,2.08.16,1.5.49,2.1c.33.6.76,1.06,1.3,1.38s1.11.48,1.72.48,1.21-.16,1.75-.47c.54-.31.98-.76,1.3-1.34.32-.58.48-1.28.48-2.1s-.16-1.52-.48-2.1Z"/><path class="cls-2" d="m128.77,208.96c.98,1,1.46,2.4,1.46,4.19v7.8h-3.36v-7.34c0-1.06-.26-1.87-.79-2.44-.53-.57-1.25-.85-2.16-.85s-1.66.28-2.2.85c-.54.57-.8,1.38-.8,2.44v7.34h-3.36v-13.3h3.36v1.66c.45-.58,1.02-1.03,1.72-1.36.7-.33,1.46-.49,2.29-.49,1.58,0,2.86.5,3.84,1.5Z"/><path class="cls-2" d="m144.63,208.96c.98,1,1.46,2.4,1.46,4.19v7.8h-3.36v-7.34c0-1.06-.26-1.87-.79-2.44-.53-.57-1.25-.85-2.16-.85s-1.66.28-2.2.85c-.54.57-.8,1.38-.8,2.44v7.34h-3.36v-13.3h3.36v1.66c.45-.58,1.02-1.03,1.72-1.36.7-.33,1.46-.49,2.29-.49,1.58,0,2.86.5,3.84,1.5Z"/><path class="cls-2" d="m149.23,210.67c.54-1.04,1.26-1.84,2.18-2.4.92-.56,1.95-.84,3.08-.84.99,0,1.86.2,2.6.6.74.4,1.34.9,1.79,1.51v-1.9h3.38v13.3h-3.38v-1.94c-.43.62-1.03,1.14-1.79,1.55s-1.64.61-2.63.61c-1.12,0-2.14-.29-3.06-.86-.92-.58-1.65-1.39-2.18-2.44s-.8-2.25-.8-3.61.27-2.54.8-3.58Zm9.18,1.52c-.32-.58-.75-1.03-1.3-1.34-.54-.31-1.13-.47-1.75-.47s-1.2.15-1.73.46c-.53.3-.96.75-1.28,1.33s-.49,1.28-.49,2.08.16,1.5.49,2.1c.33.6.76,1.06,1.3,1.38s1.11.48,1.72.48,1.21-.16,1.75-.47c.54-.31.98-.76,1.3-1.34.32-.58.48-1.28.48-2.1s-.16-1.52-.48-2.1Z"/><path class="cls-2" d="m179.1,208.02c.75.39,1.34.9,1.78,1.52v-1.9h3.38v13.39c0,1.23-.25,2.33-.74,3.3-.5.97-1.24,1.74-2.23,2.3-.99.57-2.19.85-3.6.85-1.89,0-3.44-.44-4.64-1.32s-1.89-2.08-2.05-3.6h3.34c.18.61.56,1.09,1.14,1.45.58.36,1.29.54,2.12.54.98,0,1.77-.29,2.38-.88.61-.58.91-1.47.91-2.65v-2.06c-.43.62-1.03,1.14-1.79,1.56s-1.63.62-2.6.62c-1.12,0-2.14-.29-3.07-.86s-1.66-1.39-2.2-2.44-.8-2.25-.8-3.61.27-2.54.8-3.58,1.26-1.84,2.18-2.4c.92-.56,1.95-.84,3.08-.84.99,0,1.86.2,2.62.59Zm1.3,4.18c-.32-.58-.75-1.03-1.3-1.34-.54-.31-1.13-.47-1.75-.47s-1.2.15-1.73.46c-.53.3-.96.75-1.28,1.33s-.49,1.28-.49,2.08.16,1.5.49,2.1c.33.6.76,1.06,1.3,1.38s1.11.48,1.72.48,1.21-.16,1.75-.47c.54-.31.98-.76,1.3-1.34.32-.58.48-1.28.48-2.1s-.16-1.52-.48-2.1Z"/><path class="cls-2" d="m199.81,215.31h-9.72c.08.96.42,1.71,1.01,2.26s1.32.82,2.18.82c1.25,0,2.14-.54,2.66-1.61h3.62c-.38,1.28-1.12,2.33-2.21,3.16-1.09.82-2.42,1.24-4.01,1.24-1.28,0-2.43-.28-3.44-.85-1.02-.57-1.81-1.37-2.38-2.41-.57-1.04-.85-2.24-.85-3.6s.28-2.58.84-3.62c.56-1.04,1.34-1.84,2.35-2.4,1.01-.56,2.17-.84,3.48-.84s2.4.27,3.4.82c1,.54,1.78,1.32,2.33,2.32.55,1,.83,2.15.83,3.44,0,.48-.03.91-.1,1.3Zm-3.38-2.26c-.02-.86-.33-1.56-.94-2.08-.61-.52-1.35-.78-2.23-.78-.83,0-1.53.25-2.1.76-.57.5-.92,1.2-1.04,2.1h6.31Z"/><path class="cls-2" d="m207.4,208.06c.7-.4,1.49-.6,2.39-.6v3.53h-.89c-1.06,0-1.85.25-2.39.74-.54.5-.8,1.36-.8,2.59v6.62h-3.36v-13.3h3.36v2.06c.43-.7,1-1.26,1.69-1.66Z"/><path class="cls-2" d="m211.99,210.67c.54-1.04,1.26-1.84,2.18-2.4.92-.56,1.95-.84,3.08-.84.99,0,1.86.2,2.6.6.74.4,1.34.9,1.79,1.51v-1.9h3.38v13.3h-3.38v-1.94c-.43.62-1.03,1.14-1.79,1.55s-1.64.61-2.63.61c-1.12,0-2.14-.29-3.06-.86-.92-.58-1.65-1.39-2.18-2.44s-.8-2.25-.8-3.61.27-2.54.8-3.58Zm9.18,1.52c-.32-.58-.75-1.03-1.3-1.34-.54-.31-1.13-.47-1.75-.47s-1.2.15-1.73.46c-.53.3-.96.75-1.28,1.33s-.49,1.28-.49,2.08.16,1.5.49,2.1c.33.6.76,1.06,1.3,1.38s1.11.48,1.72.48,1.21-.16,1.75-.47c.54-.31.98-.76,1.3-1.34.32-.58.48-1.28.48-2.1s-.16-1.52-.48-2.1Z"/><path class="cls-2" d="m228.26,210.67c.54-1.04,1.27-1.84,2.2-2.4.93-.56,1.96-.84,3.1-.84.86,0,1.69.19,2.47.56.78.38,1.41.88,1.87,1.5v-6.31h3.41v17.76h-3.41v-1.97c-.42.66-1,1.18-1.75,1.58-.75.4-1.62.6-2.62.6-1.12,0-2.14-.29-3.07-.86s-1.66-1.39-2.2-2.44-.8-2.25-.8-3.61.27-2.54.8-3.58Zm9.18,1.52c-.32-.58-.75-1.03-1.3-1.34-.54-.31-1.13-.47-1.75-.47s-1.2.15-1.73.46c-.53.3-.96.75-1.28,1.33s-.49,1.28-.49,2.08.16,1.5.49,2.1c.33.6.76,1.06,1.3,1.38s1.11.48,1.72.48,1.21-.16,1.75-.47c.54-.31.98-.76,1.3-1.34.32-.58.48-1.28.48-2.1s-.16-1.52-.48-2.1Z"/><path class="cls-2" d="m244.53,210.67c.54-1.04,1.26-1.84,2.18-2.4.92-.56,1.95-.84,3.08-.84.99,0,1.86.2,2.6.6.74.4,1.34.9,1.79,1.51v-1.9h3.38v13.3h-3.38v-1.94c-.43.62-1.03,1.14-1.79,1.55s-1.64.61-2.63.61c-1.12,0-2.14-.29-3.06-.86-.92-.58-1.65-1.39-2.18-2.44s-.8-2.25-.8-3.61.27-2.54.8-3.58Zm9.18,1.52c-.32-.58-.75-1.03-1.3-1.34-.54-.31-1.13-.47-1.75-.47s-1.2.15-1.73.46c-.53.3-.96.75-1.28,1.33s-.49,1.28-.49,2.08.16,1.5.49,2.1c.33.6.76,1.06,1.3,1.38s1.11.48,1.72.48,1.21-.16,1.75-.47c.54-.31.98-.76,1.3-1.34.32-.58.48-1.28.48-2.1s-.16-1.52-.48-2.1Z"/></g><text class="cls-1" transform="translate(352.74 259.46)"><tspan x="0" y="0">GIOVANNA GERADA</tspan></text></svg>