<?xml version="1.0" encoding="UTF-8"?><svg id="Layer_1" xmlns="http://www.w3.org/2000/svg" viewBox="0 0 300 300"><defs><style>.cls-1{fill:#fff;}</style></defs><path class="cls-1" d="m257.68,136.34l-9.7,6.81c1.64-4.45,2.11-9.3,1.41-14.56-.7-5.25-2.83-10.42-6.39-15.49-4.08-5.81-9.21-10.06-15.38-12.76-6.17-2.69-12.88-3.54-20.12-2.55-7.25.99-14.3,3.91-21.18,8.74-6.96,4.89-12.15,10.58-15.58,17.09-3.44,6.51-4.96,13.17-4.57,19.98.39,6.81,2.59,13.09,6.62,18.82,3.5,4.99,7.69,8.68,12.55,11.08,4.86,2.39,9.66,3.57,14.4,3.54l-10.56,7.41c-6.05,4.25-11.67,5.87-16.84,4.86-5.17-1.01-9.51-4.01-13.02-9-1.38-1.96-4.76-6.43-4.87-12.8-.07-4.28,1.33-7.56,1.97-9.04,2.05-4.67,4.19-5.4,6.31-9.3,2.26-4.17,2.43-8.05,2.49-11.99.16-9.34-3.15-18.84-9.93-28.49-5.06-7.2-10.82-12.32-17.29-15.35-6.47-3.03-13.07-4.08-19.8-3.14-6.73.94-13.25,3.62-19.55,8.05l-68.49,48.11,12.16,17.31,9.7-6.81c-1.64,4.45-2.11,9.3-1.41,14.56.7,5.25,2.83,10.42,6.39,15.49,4.08,5.81,9.21,10.06,15.38,12.76,6.17,2.69,12.88,3.54,20.12,2.55,7.25-.99,14.3-3.91,21.18-8.74,6.96-4.89,12.15-10.58,15.58-17.09,3.44-6.51,4.96-13.17,4.57-19.98-.39-6.81-2.59-13.09-6.62-18.82-3.5-4.99-7.69-8.68-12.55-11.08-4.86-2.39-9.66-3.57-14.4-3.54l10.56-7.41c6.05-4.25,11.67-5.87,16.84-4.86,5.17,1.01,9.51,4.01,13.02,9,1.38,1.96,4.76,6.42,4.87,12.8.07,4.28-1.33,7.56-1.97,9.04-2.05,4.67-4.19,5.4-6.3,9.3-2.26,4.17-2.43,8.06-2.49,12-.16,9.34,3.15,18.84,9.93,28.49,5.06,7.2,10.82,12.32,17.29,15.35,6.47,3.03,13.07,4.08,19.8,3.14,6.73-.94,13.25-3.62,19.55-8.05l68.49-48.11-12.16-17.31Zm-168.89-1.65c4.14-.46,7.98.14,11.53,1.8,3.55,1.66,6.45,4.09,8.69,7.28s3.42,6.61,3.71,10.5c.29,3.89-.51,7.75-2.4,11.59-1.89,3.83-4.88,7.19-8.97,10.06-4.09,2.87-8.22,4.52-12.38,4.94-4.16.42-7.97-.17-11.43-1.78-3.45-1.61-6.3-4.01-8.54-7.2s-3.54-6.74-3.9-10.64c-.36-3.9.38-7.72,2.22-11.46,1.84-3.74,4.84-7.07,9.02-10s8.33-4.63,12.46-5.09Zm122.42,30.63c-4.14.46-7.98-.14-11.53-1.8-3.55-1.66-6.45-4.09-8.69-7.28-2.19-3.11-3.42-6.61-3.71-10.5-.29-3.89.51-7.75,2.4-11.59,1.89-3.83,4.88-7.19,8.97-10.06s8.22-4.52,12.38-4.94c4.16-.42,7.97.17,11.43,1.78,3.45,1.61,6.3,4.01,8.54,7.2s3.54,6.74,3.9,10.64c.36,3.9-.38,7.72-2.22,11.46-1.84,3.74-4.84,7.07-9.02,10-4.17,2.93-8.33,4.63-12.46,5.09Z"/></svg>