<?xml version="1.0" encoding="UTF-8"?><svg id="Layer_1" xmlns="http://www.w3.org/2000/svg" viewBox="0 0 300 300"><defs><style>.cls-1{fill:#fff;}</style></defs><path class="cls-1" d="m150,72c-4.53,0-8.97.41-13.29,1.15v88.47h26.57v-32.06c6.68,4.36,11.11,11.89,11.11,20.44,0,13.45-10.94,24.39-24.39,24.39s-24.39-10.94-24.39-24.39c0-3.48.74-6.78,2.05-9.78v-22.64c-10.29,7.11-17.05,18.99-17.05,32.42,0,21.72,17.67,39.39,39.39,39.39s39.39-17.67,39.39-39.39c0-17.06-10.91-31.62-26.11-37.08v-12.58c21.95,5.85,38.13,25.87,38.13,49.66,0,28.39-23.01,51.41-51.41,51.41s-51.41-23.01-51.41-51.41c0-12.31,4.33-23.6,11.54-32.45v-34.6c-22.84,13.61-38.14,38.53-38.14,67.05,0,43.08,34.92,78,78,78s78-34.92,78-78-34.92-78-78-78Z"/></svg>