<?xml version="1.0" encoding="UTF-8"?><svg id="Layer_1" xmlns="http://www.w3.org/2000/svg" viewBox="0 0 300 300"><defs><style>.cls-1{fill:#fff;}</style></defs><path class="cls-1" d="m150,72c-4.53,0-8.97.41-13.29,1.15v88.47h26.57v-37.83c9.55,4.86,16.11,14.78,16.11,26.21,0,16.21-13.18,29.39-29.39,29.39s-29.39-13.18-29.39-29.39c0-6.05,1.84-11.68,4.98-16.35v-7.85c-6.17,6.22-9.98,14.77-9.98,24.2,0,18.96,15.43,34.39,34.39,34.39s34.39-15.43,34.39-34.39c0-14.26-8.72-26.52-21.11-31.72v-17.94c21.95,5.85,38.13,25.87,38.13,49.66,0,28.39-23.01,51.41-51.41,51.41s-51.41-23.01-51.41-51.41c0-12.31,4.33-23.6,11.54-32.45v-34.6c-22.84,13.61-38.14,38.53-38.14,67.05,0,43.08,34.92,78,78,78s78-34.92,78-78-34.92-78-78-78Z"/></svg>