<?xml version="1.0" encoding="UTF-8"?><svg id="Layer_1" xmlns="http://www.w3.org/2000/svg" viewBox="0 0 300 300"><defs><style>.cls-1,.cls-2{fill:#fff;}.cls-2{font-family:Poppins-SemiBold, Poppins;font-size:21px;font-weight:600;}</style></defs><path class="cls-1" d="m231.6,139.9l-7.6,5.11c1.21-3.39,1.58-7.2,1.09-11.42-.49-4.22-2.1-8.36-4.82-12.41-3.06-4.56-6.99-7.97-11.77-10.23-4.78-2.26-9.93-3.12-15.45-2.58-5.52.54-10.91,2.57-16.17,6.1-5.26,3.53-9.23,7.78-11.9,12.76-2.68,4.97-3.91,10.12-3.69,15.44.22,5.32,1.86,10.26,4.93,14.82,2.68,3.99,5.91,6.99,9.7,9,3.78,2.01,7.53,3.1,11.23,3.28l-8.74,5.87c-5.07,3.4-9.83,4.65-14.3,3.75-4.47-.9-8.17-3.54-11.11-7.91-2.51-3.74-3.83-7.52-3.96-11.33-.13-3.76.87-6.95,2.97-9.58,5.25-4.46,7.96-10.14,8.14-17.04.18-6.92-2.12-13.93-6.88-21.02-3.57-5.32-7.73-9.17-12.45-11.56-4.73-2.38-9.66-3.32-14.79-2.82-5.13.51-10.1,2.38-14.91,5.61l-53.2,35.74,7.34,10.92,7.6-5.11c-1.21,3.39-1.58,7.2-1.09,11.42.49,4.22,2.1,8.36,4.82,12.41,3.06,4.56,6.99,7.97,11.77,10.23,4.78,2.26,9.93,3.12,15.45,2.58,5.52-.54,10.91-2.57,16.17-6.1,5.26-3.53,9.23-7.78,11.9-12.76,2.68-4.97,3.91-10.12,3.69-15.44-.22-5.32-1.86-10.26-4.93-14.82-2.68-3.99-5.91-6.99-9.7-9-3.78-2.01-7.53-3.1-11.23-3.28l8.74-5.87c5.07-3.4,9.83-4.65,14.3-3.75,4.47.9,8.17,3.54,11.11,7.91,2.51,3.74,3.83,7.52,3.96,11.33.13,3.76-.87,6.95-2.97,9.58-5.25,4.46-7.96,10.14-8.14,17.04-.18,6.92,2.12,13.93,6.88,21.02,3.57,5.32,7.73,9.17,12.45,11.56,4.73,2.38,9.66,3.32,14.79,2.82,5.13-.51,10.1-2.38,14.91-5.61l53.2-35.74-7.34-10.92Zm-119.23-9.44c3.01,1.47,5.45,3.6,7.32,6.39,1.83,2.72,2.85,5.78,3.06,9.18.21,3.4-.54,6.75-2.26,10.07-1.72,3.32-4.39,6.19-8,8.61-3.61,2.43-7.23,3.78-10.86,4.06-3.63.28-6.93-.33-9.91-1.82-2.98-1.49-5.4-3.63-7.28-6.42-1.87-2.79-2.92-5.85-3.14-9.19-.22-3.34.5-6.65,2.15-9.93,1.66-3.27,4.29-6.13,7.91-8.55,3.61-2.43,7.26-3.8,10.95-4.12,3.69-.32,7.04.25,10.05,1.73Zm101.01,18.44c-1.66,3.27-4.29,6.13-7.91,8.55-3.61,2.43-7.26,3.8-10.95,4.12-3.69.32-7.04-.25-10.05-1.73-3.01-1.47-5.45-3.6-7.32-6.39-1.83-2.72-2.85-5.78-3.06-9.18-.21-3.4.54-6.75,2.26-10.07,1.72-3.32,4.39-6.19,8-8.61,3.61-2.43,7.23-3.78,10.86-4.06,3.63-.28,6.93.33,9.91,1.82,2.98,1.49,5.4,3.63,7.28,6.42,1.87,2.79,2.92,5.85,3.14,9.19.22,3.34-.5,6.65-2.15,9.93Z"/><text class="cls-2" transform="translate(55.58 218.66)"><tspan x="0" y="0">giovanna gerada</tspan></text></svg>